<svg width="86" height="24" viewBox="0 0 179 50" fill="none" xmlns="http://www.w3.org/2000/svg">
<path d="M15.744 48V29.248L0 1.92H10.176L20.16 19.264L30.144 1.92H40.32L24.576 29.248V48H15.744ZM55.094 49.024C52.3847 49.024 50.1767 48.5653 48.47 47.648C46.7633 46.7307 45.43 45.568 44.47 44.16C43.5313 42.752 42.8593 41.2907 42.454 39.776C42.0487 38.24 41.8033 36.8427 41.718 35.584C41.6327 34.3253 41.59 33.408 41.59 32.832V13.44H50.422V29.76C50.422 30.5493 50.4647 31.5627 50.55 32.8C50.6353 34.016 50.902 35.2427 51.35 36.48C51.798 37.7173 52.5233 38.752 53.526 39.584C54.55 40.416 55.99 40.832 57.846 40.832C58.5927 40.832 59.3927 40.7147 60.246 40.48C61.0993 40.2453 61.8993 39.7973 62.646 39.136C63.3927 38.4533 64.0007 37.4613 64.47 36.16C64.9607 34.8373 65.206 33.1093 65.206 30.976L70.198 33.344C70.198 36.0747 69.6433 38.6347 68.534 41.024C67.4247 43.4133 65.75 45.344 63.51 46.816C61.2913 48.288 58.486 49.024 55.094 49.024ZM66.294 48V36.544H65.206V13.44H73.974V48H66.294ZM96.4215 48.96C92.0695 48.96 88.5495 47.9787 85.8615 46.016C83.1948 44.032 81.5735 41.2373 80.9975 37.632L89.8935 36.288C90.2562 37.9093 91.0562 39.1787 92.2935 40.096C93.5522 41.0133 95.1415 41.472 97.0615 41.472C98.6402 41.472 99.8562 41.1733 100.71 40.576C101.563 39.9573 101.99 39.104 101.99 38.016C101.99 37.3333 101.819 36.7893 101.478 36.384C101.136 35.9573 100.368 35.5413 99.1735 35.136C98.0002 34.7307 96.1655 34.1973 93.6695 33.536C90.8535 32.8107 88.6028 32 86.9175 31.104C85.2322 30.208 84.0162 29.1413 83.2695 27.904C82.5228 26.6453 82.1495 25.1307 82.1495 23.36C82.1495 21.1413 82.7148 19.2213 83.8455 17.6C84.9762 15.9573 86.5655 14.6987 88.6135 13.824C90.6828 12.928 93.1148 12.48 95.9095 12.48C98.6188 12.48 101.019 12.896 103.11 13.728C105.2 14.56 106.886 15.744 108.166 17.28C109.467 18.816 110.267 20.6293 110.566 22.72L101.67 24.32C101.52 23.04 100.966 22.0267 100.006 21.28C99.0455 20.5333 97.7442 20.096 96.1015 19.968C94.5015 19.8613 93.2108 20.0747 92.2295 20.608C91.2695 21.1413 90.7895 21.9093 90.7895 22.912C90.7895 23.5093 90.9922 24.0107 91.3975 24.416C91.8242 24.8213 92.6882 25.2373 93.9895 25.664C95.3122 26.0907 97.3175 26.6453 100.006 27.328C102.63 28.0107 104.731 28.8107 106.31 29.728C107.91 30.624 109.072 31.712 109.798 32.992C110.523 34.2507 110.886 35.776 110.886 37.568C110.886 41.1093 109.606 43.8933 107.046 45.92C104.486 47.9467 100.944 48.96 96.4215 48.96ZM130.782 49.024C128.072 49.024 125.864 48.5653 124.158 47.648C122.451 46.7307 121.118 45.568 120.158 44.16C119.219 42.752 118.547 41.2907 118.141 39.776C117.736 38.24 117.491 36.8427 117.406 35.584C117.32 34.3253 117.278 33.408 117.278 32.832V13.44H126.11V29.76C126.11 30.5493 126.152 31.5627 126.238 32.8C126.323 34.016 126.59 35.2427 127.038 36.48C127.486 37.7173 128.211 38.752 129.214 39.584C130.238 40.416 131.678 40.832 133.534 40.832C134.28 40.832 135.08 40.7147 135.934 40.48C136.787 40.2453 137.587 39.7973 138.334 39.136C139.08 38.4533 139.688 37.4613 140.158 36.16C140.648 34.8373 140.894 33.1093 140.894 30.976L145.886 33.344C145.886 36.0747 145.331 38.6347 144.222 41.024C143.112 43.4133 141.438 45.344 139.198 46.816C136.979 48.288 134.174 49.024 130.782 49.024ZM141.982 48V36.544H140.894V13.44H149.662V48H141.982ZM161.485 48V13.568C161.485 12.6933 161.506 11.7013 161.549 10.592C161.592 9.48266 161.762 8.36266 162.061 7.232C162.381 6.10133 162.957 5.07733 163.789 4.16C164.856 2.96533 166.008 2.15466 167.245 1.728C168.504 1.28 169.72 1.04533 170.893 1.024C172.066 0.981332 173.069 0.959999 173.901 0.959999H178.189V8H174.221C172.856 8 171.842 8.352 171.181 9.056C170.52 9.73867 170.189 10.56 170.189 11.52V48H161.485ZM156.045 20.16V13.44H178.189V20.16H156.045Z" fill="#343F52"/>
</svg>
